<svg xmlns="http://www.w3.org/2000/svg" height="60" width="60" viewBox="0 0 48 48" id="NamasteHand"><g fill="#000000" class="color000000 svgShape"><path fill="#d2d2d2" d="M24 20.5v13.69a6 6 0 0 0 2.16 4.61L36 47l11-8-11.75-5.42a2 2 0 0 1-1.16-1.95l.76-11.31c.2-3.07-.35-3.52-6.28-17.93a2.24 2.24 0 0 0-4.29 1.1l1.62 14.59A2.48 2.48 0 0 0 24 20.5Z" class="colorf6ccaf svgShape"></path><path fill="#d2d2d2" d="M24 20.5v13.69a6 6 0 0 1-2.16 4.61L12 47 1 39l11.75-5.42a2 2 0 0 0 1.16-1.95c-.77-11.41-1.22-12.92 0-15.78C20 1.08 19.48 1.74 20.5 1.24a2.23 2.23 0 0 1 3.22 2.25L22.1 18.08A2.48 2.48 0 0 1 24 20.5Z" class="colorf6ccaf svgShape"></path><path fill="#ffffff" d="M22 20.5v12.69a6 6 0 0 1-2.16 4.61l-6 5a6 6 0 0 1-7.33.2L1 39l11.75-5.42a2 2 0 0 0 1.16-1.95l-.76-11.31c-.2-3.07.35-3.52 6.28-17.93a2.23 2.23 0 0 1 1.07-1.15 2.22 2.22 0 0 1 1.23 2c0 .26.11-.86-1.63 14.85A2.48 2.48 0 0 1 22 20.5zm4 0v12.69a6 6 0 0 0 2.16 4.61l6 5a6 6 0 0 0 7.37.24L47 39l-11.75-5.42a2 2 0 0 1-1.16-1.95l.76-11.31c.2-3.07-.35-3.52-6.28-17.93a2.23 2.23 0 0 0-1.07-1.15 2.22 2.22 0 0 0-1.23 2c0 .26-.11-.86 1.63 14.85A2.48 2.48 0 0 0 26 20.5z" class="colorffdec7 svgShape"></path><path fill="#c1c1c1" d="M23 18.5a1 1 0 0 1-1.15.55A1.46 1.46 0 0 0 20 20.5V27a1 1 0 0 1-2 0v-6.5a3.5 3.5 0 0 1 4.21-3.42c-.21 1.58-.27.63.79 1.42zm2 0a1 1 0 0 0 1.15.55A1.46 1.46 0 0 1 28 20.5V27a1 1 0 0 0 2 0v-6.5a3.5 3.5 0 0 0-4.21-3.42c.21 1.58.27.63-.79 1.42z" class="coloredb996 svgShape"></path><path d="m47.42 38.09-11.75-5.42a1 1 0 0 1-.58-1C36.2 15 37.33 21 29.5 2a3.23 3.23 0 0 0-5.5-.8 3.23 3.23 0 0 0-5.5.8L13 15.47c-1.3 3.15-.82 4.64-.05 16.23.07.95.09.66-12.33 6.39A1 1 0 0 0 1 40c.32 0-.67.41 12.17-5.52a3 3 0 0 0 1.74-2.92l-.76-11.31c-.2-3 .64-4 6.2-17.48a1.25 1.25 0 0 1 2.38.61L21.21 17A3.49 3.49 0 0 0 18 20.5V27a1 1 0 0 0 2 0v-6.5a1.5 1.5 0 0 1 3 0v13.69A5 5 0 0 1 21.2 38l-9.84 8.2a1 1 0 0 0 1.28 1.54C23.16 39 23.18 39.16 24 37.79c.9 1.5 1.17 1.49 11.36 10a1 1 0 0 0 1.28-1.54L26.8 38a5 5 0 0 1-1.8-3.81V20.5a1.5 1.5 0 0 1 3 0V27a1 1 0 0 0 2 0v-6.5a3.49 3.49 0 0 0-3.21-3.5L25.27 3.38a1.25 1.25 0 0 1 2.38-.61c5.75 14 6.38 14.69 6.2 17.48l-.76 11.31a3 3 0 0 0 1.74 2.92C47.46 40.31 46.68 40 47 40a1 1 0 0 0 .42-1.91ZM23.18 17.45l.82-7.4.82 7.4a3.24 3.24 0 0 0-.82.61 3.24 3.24 0 0 0-.82-.61Z" fill="#000000" class="color000000 svgShape"></path></g></svg>
